<?xml version="1.0" standalone="no"?>
<!DOCTYPE svg PUBLIC "-//W3C//DTD SVG 1.1//EN" "http://www.w3.org/Graphics/SVG/1.1/DTD/svg11.dtd" >
<svg>
<metadata>
Created by FontForge 20090622 at Tue Mar 13 16:48:04 2018
 By ffonts
SIL Open Font License
</metadata>
<defs>
<font id="Panther" horiz-adv-x="789" >
  <font-face 
    font-family="Panther"
    font-weight="400"
    font-stretch="normal"
    units-per-em="1024"
    panose-1="0 0 0 0 0 0 0 0 0 0"
    ascent="819"
    descent="-205"
    x-height="815"
    cap-height="820"
    bbox="0 -89 870 861"
    underline-thickness="1"
    underline-position="-2"
    unicode-range="U+000D-U+201D"
  />
<missing-glyph horiz-adv-x="543" 
d="M51 102h307v616h-307v-616zM0 769h410v-718h-410v718z" />
    <glyph glyph-name=".notdef" horiz-adv-x="543" 
d="M51 102h307v616h-307v-616zM0 769h410v-718h-410v718z" />
    <glyph glyph-name=".null" horiz-adv-x="0" 
 />
    <glyph glyph-name="nonmarkingreturn" unicode="&#xd;" horiz-adv-x="0" 
 />
    <glyph glyph-name="space" unicode=" " horiz-adv-x="276" 
 />
    <glyph glyph-name="exclam" unicode="!" horiz-adv-x="412" 
d="M207 6q-9 0 -16 3t-13 9q-5 6 -9 14q-3 7 -3 15q0 7 3 15t9 13l3 3q2 2 3 2q2 1 4 3q2 1 3 2q2 0 4 1t5 1q4 1 8 1q6 0 12 -2q10 -4 17 -11q5 -5 8 -13q4 -8 4 -15v-4q0 -2 -1 -5q0 -2 -1 -4q-1 -1 -1 -4q-1 -1 -2 -3l-2 -4q-2 -1 -3 -3q-1 -1 -2 -3q-7 -5 -15 -8t-15 -3
zM207 190q-17 0 -29 12t-12 29v553q0 17 12 29t29 12t29 -12t12 -29v-553q0 -17 -12 -29t-29 -12z" />
    <glyph glyph-name="quotedbl" unicode="&#x22;" horiz-adv-x="402" 
d="M133 658q-19 0 -33 13q-13 14 -13 33v92q0 19 13 33q14 13 33 13t33 -13q13 -14 13 -33v-92q0 -18 -13 -32q-14 -14 -33 -14zM285 658q-19 0 -33 13q-13 14 -13 33v92q0 19 13 33q14 13 33 13t33 -13q13 -14 13 -33v-92q0 -18 -13 -32q-14 -14 -33 -14z" />
    <glyph glyph-name="dollar" unicode="$" horiz-adv-x="480" 
d="M307 97v-2v-2v-92q0 -17 -12 -29t-29 -12t-29 12t-12 29v35q-22 -14 -37 -22t-16 -9q-5 -2 -9 -3q-5 -1 -9 -1q-12 0 -22 6t-15 16q-5 9 -5 18q0 7 2 14q6 16 21 24q32 16 69 41q37 26 63 52q14 15 22 28q8 14 8 26q0 25 -28 72l-57 90q-38 57 -69 110q-30 53 -30 97
q0 31 17 63q18 33 54 66v2v2v92q0 17 12 29t29 12t29 -12t12 -29v-35q22 14 38 22q15 8 15 9q16 8 32 2q16 -5 24 -21q4 -8 4 -17q0 -7 -2 -14q-5 -16 -21 -24q-17 -8 -36 -20q-20 -12 -38 -25q-35 -25 -61 -53q-26 -27 -26 -49q0 -26 28 -72q28 -47 57 -90q38 -57 68 -110
q31 -53 31 -97q0 -31 -18 -64t-54 -65z" />
    <glyph glyph-name="ampersand" unicode="&#x26;" horiz-adv-x="750" 
d="M572 42v-1v-1v-3q-1 -1 -1 -3v-3l-2 -4q0 -2 -2 -4q-1 -2 -2 -3l-2 -4q-2 -2 -3 -2l-3 -3q-1 -2 -3 -2l-4 -2l-3 -3q-2 0 -3 -1q-2 -1 -3 -1h-1h-1h-3q-2 -1 -4 -1h-184q-30 0 -60 10q-29 9 -55 26q-48 32 -79 82q-31 51 -31 108q0 53 31 106q30 52 83 84q13 9 30 6
q17 -4 26 -18t6 -31q-4 -16 -18 -25q-34 -22 -55 -56q-21 -33 -21 -66q0 -53 45 -98q46 -46 98 -46h126l-256 682q-6 16 1 31t23 22q16 6 31 -1q16 -7 22 -23q1 -2 2 -5l274 -732l2 -4v-3v-5t-1 -3zM626 447q0 -17 -12 -29t-29 -12h-83q-17 0 -29 12t-12 29t12 29t29 12h84
q17 0 28 -12q12 -12 12 -29zM352 750q-6 5 -9 13t-3 16v4q1 2 1 4t1 4q0 2 1 4l2 4t2 3q1 2 2 3l3 3q7 7 17 11q10 3 20 1q2 0 5 -1q2 -1 3 -1q2 -1 3 -2q2 -1 3 -3q2 0 4 -2l3 -3q6 -5 9 -12q3 -8 3 -16t-4 -15q-3 -8 -8 -14q-6 -6 -14 -9q-4 -2 -8 -3h-7q-8 0 -15 3
q-8 3 -14 8z" />
    <glyph glyph-name="quotesingle" unicode="'" horiz-adv-x="402" 
d="M192 658q-19 0 -33 13q-13 14 -13 33v92q0 19 13 33q14 13 33 13t32 -13q14 -14 14 -33v-92q0 -18 -14 -32q-13 -14 -32 -14z" />
    <glyph glyph-name="comma" unicode="," horiz-adv-x="402" 
d="M197 -89q-20 0 -33 14q-14 13 -14 32v93q0 19 14 32q13 14 33 14q19 0 32 -14q14 -13 14 -32v-93q0 -18 -14 -32q-13 -14 -32 -14z" />
    <glyph glyph-name="hyphen" unicode="-" horiz-adv-x="430" 
d="M121 401q0 20 13 33q14 14 33 14h92q19 0 33 -14q13 -13 13 -33q0 -19 -13 -32q-14 -14 -33 -14h-92q-19 0 -33 14q-13 14 -13 32z" />
    <glyph glyph-name="period" unicode="." horiz-adv-x="209" 
d="M128 15q-6 -6 -15 -10t-17 -4q-9 0 -18 4t-15 10t-10 15q-3 9 -3 17q0 9 3 18q4 9 10 15t15 10t18 4q8 0 17 -4t15 -10t10 -15t4 -18q0 -8 -4 -17t-10 -15z" />
    <glyph glyph-name="slash" unicode="/" horiz-adv-x="574" 
d="M158 0q-4 0 -7 1t-7 2q-16 6 -23 22q-4 8 -4 17q0 7 2 13l277 743q6 16 21 23q8 3 17 3q7 0 15 -3q16 -6 23 -21q4 -9 4 -18q0 -6 -2 -13l-277 -742q-5 -13 -16 -20q-10 -7 -23 -7z" />
    <glyph glyph-name="zero" unicode="0" horiz-adv-x="646" 
d="M594 595v-369q0 -38 -18 -91q-18 -52 -65 -90q-25 -20 -60 -32q-36 -12 -82 -12q-47 0 -82 12q-36 12 -61 32q-47 38 -65 90q-18 53 -18 91v107v262q0 4 4 37t23 72q19 40 64 78q44 38 130 38q88 0 138 -39q49 -40 71 -88q11 -27 16 -52q5 -26 5 -46zM512 226v162
l-161 -161q-6 -6 -13 -9q-8 -3 -15 -3q-8 0 -16 3q-7 3 -13 9q-12 12 -12 29t12 29l218 219v91q0 7 -6 42q-7 35 -38 64q-16 16 -42 26q-25 11 -62 11q-36 0 -60 -11q-24 -10 -39 -26q-28 -30 -34 -65t-6 -41v-162l160 159q12 13 29 13t29 -13q13 -12 13 -29t-13 -29
l-218 -218v-90q0 -7 6 -42t36 -65q16 -15 41 -26q24 -10 61 -10q36 0 61 10q25 11 41 26q29 30 35 65t6 42z" />
    <glyph glyph-name="one" unicode="1" horiz-adv-x="449" 
d="M308 1q-16 0 -29 12q-12 12 -12 29v737q0 7 3 14q3 8 9 15q13 12 29 12q17 0 29 -12t12 -29v-737q0 -17 -12 -29t-29 -12zM186 738h-5q-1 0 -4 1q-2 1 -4 1t-4 1q-1 1 -3 2q-2 0 -4 2q-2 1 -3 2l-3 3q-6 6 -8 13q-3 8 -3 16v4t1 4q0 2 1 4q0 2 1 4q0 2 1 4t3 3q1 2 2 3
q1 2 3 4q1 1 3 2q1 2 3 3q2 0 4 2q2 1 3 2q2 1 4 1q2 1 4 1q4 1 9 1q4 0 8 -1q2 -1 4 -1t4 -1q1 -1 4 -2q2 -1 3 -2q2 -1 3 -3q2 -1 3 -2q2 -2 3 -4q2 -1 2 -3q1 -1 2 -3q2 -2 2 -4q1 -1 2 -4q1 -2 1 -4q-1 -2 -1 -4v-4t-1 -4q0 -2 -1 -4q0 -3 -1 -4q0 -2 -1 -5q0 -1 -1 -3
t-3 -4q0 -1 -2 -3l-3 -3q-5 -5 -13 -8q-5 -2 -9 -3h-6z" />
    <glyph glyph-name="two" unicode="2" horiz-adv-x="832" 
d="M775 42q0 -17 -12 -29t-29 -12h-553q-13 0 -23 7q-11 8 -15 20q-2 7 -2 14q0 5 1 11q4 12 14 20q0 1 14 12l38 31l115 97l144 124q6 5 16 15l53 46l50 46q45 44 76 83t31 68q0 36 -10 61q-11 25 -27 41q-29 29 -64 35t-42 6h-276q-17 0 -29 12t-12 29t12 29t29 12h276
q20 0 46 -5t52 -16q49 -21 88 -69q39 -49 39 -135q0 -73 -71 -147t-167 -159q-6 -4 -17 -14l-120 -104l-105 -88h439q17 0 29 -13q12 -12 12 -28zM775 178q0 -17 -12 -29t-29 -12h-184q-17 0 -29 12t-12 29t12 29t29 12h184q17 0 29 -12t12 -29z" />
    <glyph glyph-name="three" unicode="3" horiz-adv-x="739" 
d="M687 226q0 -47 -12 -82q-13 -35 -33 -61q-37 -47 -90 -65q-52 -17 -90 -17h-277q-17 0 -29 12t-12 29q0 16 12 28q12 13 29 13h277l24 2q24 3 51 17q34 18 51 48q17 31 17 76q0 44 -17 75t-51 49q-27 14 -51 16l-24 3h-185h-4h-3q-1 0 -1 1h-2h-2q-1 1 -2 1q-1 1 -2 1
q-1 1 -2 1q-1 1 -2 1q0 1 -1 1l-2 2t-2 1t-1 1h-1q-2 2 -3 4q-2 1 -2 3q-1 0 -1 1q-1 1 -1 2q-1 0 -1 2q-1 1 -1 2t-1 2v3q0 1 -1 1q-1 1 -1 2v4q-1 2 -1 4v2v0q1 2 1 3v3q0 2 1 3l1 1v2q0 2 1 3q0 1 1 2q0 1 1 2l1 1q0 1 1 2l1 2l2 2v1l1 1l299 304h-363q-17 0 -29 12
t-12 29t12 29t29 12h461q12 0 23 -8q10 -7 15 -18q5 -10 2 -23q-2 -12 -11 -21l-299 -304h86q20 0 46 -5q26 -4 52 -16q49 -21 88 -69t39 -135z" />
    <glyph glyph-name="four" unicode="4" horiz-adv-x="739" 
d="M686 779v-737q0 -17 -12 -29q-13 -12 -29 -12q-17 0 -29 12t-12 29v637l-188 -187h75q17 0 29 -12t12 -29t-12 -29t-29 -12h-157l-51 -51h208q17 0 29 -12t12 -29t-12 -29t-29 -12h-307q-12 0 -23 7q-10 7 -15 18q-3 7 -3 14q0 5 1 10q3 12 11 21l461 460q8 10 20 12
q5 1 9 1q7 0 15 -3q11 -5 19 -15q7 -11 7 -23z" />
    <glyph glyph-name="five" unicode="5" horiz-adv-x="739" 
d="M687 222q0 -47 -12 -83q-13 -35 -33 -60q-37 -48 -90 -66q-52 -18 -90 -18h-277q-17 0 -29 12q-12 13 -12 29q0 17 12 29t29 12h277q7 0 42 6t64 36q16 17 27 41q10 25 10 62q0 36 -10 62q-11 25 -26 42q-30 31 -65 38q-35 8 -43 8h-276q-17 0 -29 12t-12 29v371
q0 17 12 29t29 12h369q17 0 29 -12t12 -29t-12 -29t-29 -12h-328v-289h236q20 -1 46 -6q26 -6 52 -18q49 -23 88 -72q39 -50 39 -136z" />
    <glyph glyph-name="six" unicode="6" horiz-adv-x="646" 
d="M368 1q-5 0 -38 4q-33 5 -72 25t-77 65q-38 46 -38 131q0 47 26 121q25 74 56 157q6 16 12 30q5 15 11 30q34 90 57 158q24 68 25 69q5 16 20 24q9 4 18 4q7 0 14 -2q16 -6 24 -21q7 -15 2 -32l-25 -69l-57 -161l-12 -30t-11 -30q-28 -70 -53 -141t-25 -107q0 -35 11 -59
q10 -24 26 -40q28 -29 64 -37q35 -7 44 -7q8 0 42 6q35 6 64 36q15 16 26 41q10 24 10 60t-11 61q-10 25 -26 41q-29 30 -64 35q-35 6 -42 6q-17 0 -29 12t-12 29t12 29t29 12q38 0 90 -18q53 -17 90 -65q20 -25 33 -60q12 -35 12 -82t-13 -82q-12 -35 -32 -61
q-38 -47 -91 -65q-52 -17 -90 -17z" />
    <glyph glyph-name="seven" unicode="7" horiz-adv-x="558" 
d="M504 770l-277 -743q-4 -12 -15 -19q-10 -7 -23 -7h-7q-3 1 -7 3q-16 5 -23 20q-8 16 -1 32l276 742q5 16 21 23q8 4 16 4q7 0 15 -3q16 -6 23 -21q4 -9 4 -18q0 -7 -2 -13zM147 779q0 17 13 29q12 12 28 12h154q17 0 29 -12t12 -29t-12 -29t-29 -12h-154q-16 0 -28 12
q-13 12 -13 29z" />
    <glyph glyph-name="eight" unicode="8" horiz-adv-x="739" 
d="M687 231q0 -48 -12 -84q-13 -36 -33 -62q-37 -48 -90 -66q-52 -18 -90 -18h-92q-21 0 -47 4q-25 5 -51 16q-49 22 -88 70q-40 48 -40 135q0 70 27 114q27 45 63 70q-36 26 -63 70q-27 45 -27 115q0 46 13 82q12 35 32 60q38 47 90 65q53 18 91 18h92q4 0 37 -4t72 -23
q40 -19 78 -64q38 -44 38 -129q0 -73 -27 -118t-64 -71q34 -22 63 -65q28 -43 28 -115zM226 595q0 -45 17 -76t51 -48q27 -14 51 -17l25 -3h92l24 3t51 18q34 18 51 50t17 78q0 43 -16 72q-17 30 -50 46q-28 14 -53 17l-24 3h-92q-1 0 -25 -3t-51 -17q-34 -17 -51 -48
t-17 -75zM605 231q0 43 -16 72q-17 30 -50 47q-28 14 -53 16l-24 3h-92q-1 0 -25 -3q-24 -2 -51 -16q-34 -18 -51 -49t-17 -75q0 -45 17 -76q17 -30 51 -48q27 -14 51 -17l25 -2h92l24 2q24 3 51 18q34 18 51 50t17 78z" />
    <glyph glyph-name="nine" unicode="9" horiz-adv-x="646" 
d="M369 1h-7q-4 1 -7 2q-16 5 -23 20q-8 16 -2 32q0 1 24 70l58 160q3 12 8 23q4 11 9 22l56 154t27 116q0 35 -11 59q-10 24 -26 39q-30 29 -64 34q-35 6 -42 6t-42 -6t-65 -36q-16 -16 -26 -40q-11 -25 -11 -61q0 -37 11 -62q10 -25 26 -41q30 -29 65 -35t42 -6
q17 0 29 -12t12 -29t-12 -29t-29 -12q-38 0 -91 18q-52 18 -90 65q-20 25 -32 60q-13 36 -13 83q0 46 13 82q12 35 32 60q38 47 90 65q53 18 91 18q4 0 37 -4t72 -23q40 -19 78 -64q38 -44 38 -129q0 -50 -27 -129q-27 -80 -61 -169q-5 -12 -9 -23t-9 -22l-57 -159t-24 -69
q-4 -13 -15 -21q-10 -7 -23 -7z" />
    <glyph glyph-name="colon" unicode=":" horiz-adv-x="412" 
d="M207 221h-4t-4 1h-4q-2 1 -5 2q-1 1 -3 1q-2 1 -4 3q-1 1 -3 2l-3 3q-5 6 -9 14q-3 7 -3 15v4t1 4t1 4t1 4l2 4q0 2 2 3q1 2 2 3l3 3l3 3l3 3q2 0 4 2q2 1 3 2q2 0 4 1t5 1q4 1 8 1q6 0 12 -2q10 -4 16 -11q2 -1 3 -3l3 -3q1 -1 2 -3l2 -4q0 -1 1 -4q1 -2 1 -4v-4
q1 -2 1 -4q0 -8 -3 -16t-10 -13q-5 -6 -13 -9t-15 -3zM207 528q-9 0 -16 3t-13 9q-1 2 -3 3q-1 2 -2 3l-2 4q-1 1 -2 4q-1 1 -1 3q-1 2 -1 5q0 2 -1 4v4q0 8 3 16q3 7 9 13q6 5 14 8q7 4 15 4q7 0 15 -3t13 -9q6 -7 9 -14q4 -7 4 -15t-3 -16q-3 -7 -10 -13q-5 -7 -13 -10
t-15 -3z" />
    <glyph glyph-name="semicolon" unicode=";" horiz-adv-x="416" 
d="M214 -84q-17 0 -29 12t-12 29v92q0 17 12 29t29 12t29 -12t12 -29v-92q0 -17 -12 -29t-29 -12zM214 213q-8 0 -16 3q-7 3 -13 9q-1 2 -3 3l-2 4q-1 1 -2 3l-2 4q-1 1 -1 3q-1 3 -1 5v4q-1 2 -1 4v4t1 4q1 3 1 4q0 2 1 5q1 1 2 3l2 4q1 1 2 3q2 1 3 3q2 1 3 3q2 1 3 2l4 2
l4 2q1 1 3 1q3 1 5 1q10 2 20 -1t17 -10q1 -2 2 -3q1 -2 3 -3l2 -4q1 -1 2 -3t1 -4q1 -2 1 -5v-4q1 -2 1 -4v-4t-1 -4q0 -2 -1 -4q0 -2 -1 -4l-2 -4t-2 -3q-2 -2 -3 -4q-1 -1 -2 -3q-6 -6 -14 -9t-16 -3z" />
    <glyph glyph-name="A" unicode="A" horiz-adv-x="787" 
d="M645 1h-553q-10 0 -19 5q-8 4 -15 13q-6 8 -7 18v5q0 7 3 15l279 732q4 12 15 19q10 7 23 7t23 -7q11 -7 15 -19l274 -732q3 -7 3 -14q0 -3 -1 -6q-1 -10 -7 -18q-5 -9 -14 -13q-9 -5 -19 -5zM152 83h434l-215 576z" />
    <glyph glyph-name="B" unicode="B" 
d="M686 226q0 -87 -39 -135t-88 -70q-26 -11 -52 -16q-26 -4 -46 -4h-369q-17 0 -29 12t-12 29v368q0 17 12 29t29 12h369l24 3t52 17q33 17 50 48t17 76q0 44 -17 75t-50 48q-28 14 -52 17l-24 3h-277q-17 0 -29 12t-12 29t12 29t29 12h277q20 0 46 -5t52 -16
q49 -21 88 -69q39 -49 39 -135q0 -70 -27 -115q-26 -44 -63 -70q37 -25 63 -70q27 -44 27 -114zM604 226q0 36 -10 61q-11 25 -27 41q-29 30 -64 35q-35 6 -42 6h-328v-286h328q7 0 42 6t64 35q16 16 27 41q10 25 10 61z" />
    <glyph glyph-name="C" unicode="C" 
d="M461 1q-60 0 -114 16q-55 16 -102 45q-87 54 -141 146q-53 92 -53 202q0 60 16 114q16 55 46 102q54 87 146 141q92 53 202 53q54 0 106 -14q52 -15 99 -42q14 -8 19 -25q4 -16 -4 -31q-8 -14 -25 -19t-31 4q-37 22 -79 33q-42 12 -85 12q-47 0 -91 -13t-81 -36
q-70 -44 -113 -117q-43 -74 -43 -162t43 -161q43 -74 113 -117q37 -24 81 -37q44 -12 91 -12q43 0 85 11t79 33q14 8 31 4t25 -20q6 -9 6 -20q0 -5 -2 -11q-4 -17 -19 -25q-47 -26 -99 -40t-106 -14z" />
    <glyph glyph-name="D" unicode="D" 
d="M287 1h-185q-16 0 -29 12q-12 12 -12 29v737q0 17 12 29q13 12 29 12h185q36 0 104 -7q68 -6 135 -44q85 -49 128 -139q42 -90 42 -220t-42 -220q-43 -90 -128 -138q-67 -39 -135 -45t-104 -6zM143 83h144q74 0 149 19t123 87q25 37 40 91t15 130t-15 131q-15 54 -40 91
q-48 68 -123 87t-149 19h-144v-655z" />
    <glyph glyph-name="E" unicode="E" 
d="M686 42q0 -17 -12 -29t-29 -12h-553q-17 0 -29 12t-12 29v737q0 17 12 29t29 12h553q17 0 29 -12t12 -29t-12 -29t-29 -12h-512v-378q109 1 327 4q17 1 29 -11q13 -12 13 -29q1 -17 -11 -30q-12 -12 -29 -12q-110 -1 -329 -4v-195h512q17 0 29 -13q12 -12 12 -28z" />
    <glyph glyph-name="F" unicode="F" 
d="M686 779q0 -17 -12 -29t-29 -12h-512v-287h328q17 0 29 -12t12 -29t-12 -29t-29 -12h-328v-327q0 -17 -12 -29t-29 -12t-29 12t-12 29v737q0 17 12 29t29 12h553q17 0 29 -12t12 -29z" />
    <glyph glyph-name="G" unicode="G" 
d="M461 1q-60 0 -114 16q-55 16 -102 45q-87 54 -141 146q-53 92 -53 202q0 60 16 114q16 55 46 102q54 87 146 141q92 53 202 53q54 0 106 -14q52 -15 99 -42q14 -8 19 -25q1 -6 1 -11q0 -11 -5 -20q-8 -14 -25 -19t-31 4q-37 22 -79 33q-42 12 -85 12q-47 0 -91 -13
t-81 -36q-70 -44 -113 -117q-43 -74 -43 -162t43 -161q43 -74 113 -117q37 -24 81 -37q44 -12 91 -12q37 0 74 8q36 8 69 24v203q0 17 12 29t29 12t29 -12t12 -29v-227q0 -11 -6 -21q-5 -9 -14 -15q-47 -26 -99 -40t-106 -14z" />
    <glyph glyph-name="H" unicode="H" 
d="M686 779v-737q0 -17 -12 -29t-29 -12t-29 12t-12 29v235h-471v-235q0 -17 -12 -29t-29 -12t-29 12t-12 29v737q0 17 12 29t29 12t29 -12t12 -29v-236h471v236q0 17 12 29t29 12t29 -12t12 -29zM604 359v102h-471v-102h471z" />
    <glyph glyph-name="I" unicode="I" horiz-adv-x="235" 
d="M92 1q-17 0 -29 12t-12 29v737q0 17 12 29t29 12t29 -12t12 -29v-737q0 -17 -12 -29t-29 -12z" />
    <glyph glyph-name="J" unicode="J" horiz-adv-x="419" 
d="M92 1q-17 0 -29 12t-12 29q0 16 12 28q12 13 29 13q38 0 63 4q25 5 41 14q30 17 35 48q5 32 5 77v553q0 17 12 29t28 12q17 0 29 -12t12 -29v-553q0 -44 -7 -96q-8 -52 -54 -87q-25 -19 -65 -31q-40 -11 -99 -11z" />
    <glyph glyph-name="K" unicode="K" horiz-adv-x="605" 
d="M494 71q8 -11 8 -24q0 -3 -1 -6q-2 -17 -16 -27q-5 -4 -12 -6q-6 -2 -12 -2q-9 0 -18 4t-15 12l-197 262l-98 -73v-169q0 -17 -12 -29t-29 -12t-29 12t-12 29v737q0 17 12 29t29 12t29 -12t12 -29v-283l257 190q14 10 31 7t26 -17q10 -13 8 -30q-3 -17 -17 -27l-305 -224
v-82l303 227q14 10 31 8t27 -16t7 -31q-2 -16 -16 -26l-188 -142z" />
    <glyph glyph-name="L" unicode="L" horiz-adv-x="697" 
d="M553 1h-461q-17 0 -29 12t-12 29v737q0 17 12 29t29 12t29 -12t12 -29v-696h420q17 0 29 -13q12 -12 12 -28q0 -17 -12 -29t-29 -12z" />
    <glyph glyph-name="M" unicode="M" horiz-adv-x="972" 
d="M843 4q-3 -2 -7 -3h-7q-12 0 -23 7q-10 7 -15 19l-238 635l-239 -635q-5 -15 -21 -22q-15 -7 -31 -1q-16 5 -23 20q-7 16 -1 32l178 477l-48 129l-238 -635q-5 -12 -15 -19q-11 -7 -23 -7h-7q-4 1 -8 3q-15 5 -22 20q-4 9 -4 17t3 15l276 737q4 12 15 20q10 7 23 7t24 -7
q10 -8 14 -20l54 -143l55 143q4 12 14 20q10 7 24 7q13 0 23 -7q11 -8 14 -20l277 -737q3 -8 3 -16t-4 -16q-7 -15 -23 -20z" />
    <glyph glyph-name="N" unicode="N" 
d="M686 779v-737q0 -14 -8 -25q-7 -11 -20 -14q-3 -1 -7 -2h-6q-9 0 -18 4t-15 12l-479 639v-440h236q17 0 29 -12t12 -29t-12 -29t-29 -12h-277q-17 0 -29 12t-12 29v604q0 13 8 24t20 15q13 4 26 0q12 -4 20 -15l479 -639v615q0 17 12 29t29 12t29 -12t12 -29zM500 42
q0 -17 -12 -29t-29 -12h-367q-17 0 -29 12t-12 29q0 16 12 28q12 13 29 13h367q17 0 29 -13q12 -12 12 -28z" />
    <glyph glyph-name="O" unicode="O" horiz-adv-x="973" 
d="M461 1q-60 0 -114 16q-55 16 -102 45q-87 54 -141 146q-53 92 -53 202q0 60 16 114q16 55 46 102q54 87 146 141q92 53 202 53t202 -53q92 -54 146 -141q29 -47 45 -102q16 -54 16 -114q0 -59 -16 -114t-45 -102q-54 -87 -146 -140t-202 -53zM461 738q-47 0 -91 -13
t-81 -36q-70 -44 -113 -117q-43 -74 -43 -162t43 -161q43 -74 113 -117q37 -24 81 -37q44 -12 91 -12q88 0 161 42q74 43 117 113q24 38 37 81q12 44 12 91t-12 91q-13 44 -37 81q-43 70 -117 113q-73 43 -161 43z" />
    <glyph glyph-name="P" unicode="P" 
d="M92 1q-17 0 -29 12t-12 29v368q0 17 12 29t29 12h369q7 0 42 6t64 36q16 16 27 40q10 25 10 62q0 36 -10 61q-11 25 -26 41q-30 31 -65 38t-43 8h-276q-17 0 -29 12t-12 29t12 29t29 12h278q20 -1 46 -6q26 -6 52 -18q48 -22 87 -71t39 -135q0 -87 -39 -135
q-39 -49 -88 -70q-26 -11 -52 -16t-46 -5h-328v-327q0 -17 -12 -29t-29 -12z" />
    <glyph glyph-name="Q" unicode="Q" horiz-adv-x="973" 
d="M858 17q-6 -6 -13 -9q-8 -3 -16 -3q-7 0 -15 3q-7 3 -13 9l-81 81q-53 -43 -119 -68q-66 -24 -140 -24q-60 0 -114 16q-55 16 -102 45q-87 54 -141 146q-53 92 -53 202q0 60 16 115q16 54 46 101q54 87 146 141q92 53 202 53t202 -53q92 -54 146 -141q29 -47 45 -101
q16 -55 16 -115q0 -73 -24 -140q-25 -66 -68 -119l80 -81q12 -11 12 -28q0 -18 -12 -30zM662 156l-46 45q-12 13 -12 29q0 17 12 30q13 12 30 12t29 -12l45 -45q32 41 50 92t18 108q0 88 -42 162q-43 73 -113 117q-38 23 -81 36q-44 13 -91 13t-91 -13t-81 -36
q-70 -44 -113 -117q-43 -74 -43 -162t43 -161q43 -74 113 -117q37 -24 81 -36q44 -13 91 -13q57 0 108 18t93 50z" />
    <glyph glyph-name="R" unicode="R" 
d="M682 59q4 -8 4 -18q1 -6 -2 -13q-5 -16 -20 -24q-5 -2 -10 -3q-4 -1 -9 -1q-11 0 -21 6t-16 16l-173 347h-302v-328q0 -17 -12 -29t-29 -12t-29 12t-12 29v369q0 16 12 28q12 13 29 13h369q7 0 42 6t64 35q16 16 27 41q10 25 10 61t-10 61q-11 25 -27 41q-29 30 -64 35
q-35 6 -42 6h-277q-17 0 -29 12t-12 29t12 29t29 12h277q20 0 46 -5q26 -4 52 -16q49 -21 88 -69t39 -135q0 -103 -53 -152q-53 -50 -110 -65z" />
    <glyph glyph-name="S" unicode="S" horiz-adv-x="421" 
d="M92 -5q-11 0 -21 6t-15 17q-5 9 -5 18q0 7 2 13q6 17 21 24q17 9 37 21q19 11 38 25q35 25 61 52q26 28 26 50q0 25 -28 72l-57 90q-39 57 -69 110t-30 96q0 40 27 79q27 40 81 81q36 28 66 44q31 17 32 18q9 4 18 4q7 0 14 -2q16 -6 24 -21q4 -9 4 -18q0 -7 -2 -13
q-5 -16 -21 -24q-32 -16 -69 -42q-37 -25 -63 -52q-13 -14 -21 -28q-9 -14 -9 -26q0 -25 29 -72l56 -89q39 -58 69 -111q31 -52 31 -96q0 -39 -28 -79q-27 -40 -81 -81q-36 -28 -66 -44q-31 -17 -32 -17q-5 -3 -9 -4q-5 -1 -10 -1z" />
    <glyph glyph-name="T" unicode="T" horiz-adv-x="512" 
d="M92 -5q-17 0 -29 12q-12 13 -12 29v743q0 17 12 29t29 12h277q17 0 29 -12t12 -29t-12 -29t-29 -12h-236v-702q0 -16 -12 -29q-12 -12 -29 -12z" />
    <glyph glyph-name="U" unicode="U" 
d="M369 6q-156 0 -237 80q-81 81 -81 237v461q0 17 12 29t29 12t29 -12t12 -29v-461q0 -120 58 -178q57 -57 178 -57q120 0 178 57q57 58 57 178v461q0 17 12 29t29 12t29 -12t12 -29v-461q0 -156 -81 -237q-80 -80 -236 -80z" />
    <glyph glyph-name="V" unicode="V" horiz-adv-x="787" 
d="M368 -5q-13 0 -23 8q-11 7 -15 19l-276 737q-3 8 -3 16t4 16q6 15 23 21q7 3 15 3q8 -1 16 -4q15 -7 21 -23l238 -635l239 635q5 16 21 23q15 7 31 1q16 -7 23 -22q4 -8 4 -16q0 -7 -3 -15l-277 -737q-4 -12 -14 -19q-11 -8 -24 -8z" />
    <glyph glyph-name="W" unicode="W" horiz-adv-x="973" 
d="M867 759l-276 -737q-4 -12 -15 -19q-11 -8 -23 -8q-13 0 -23 8q-11 7 -15 19l-55 143l-54 -143q-4 -12 -15 -19q-10 -8 -23 -8q-12 0 -22 8q-11 7 -16 19l-276 737q-3 8 -3 15q0 8 4 16q6 15 23 22q7 3 15 3q8 -1 16 -4q15 -7 21 -23l238 -635l49 129l-179 477
q-6 16 1 31t23 22q16 6 31 -1q16 -7 21 -23l239 -635l238 635q6 16 21 23t31 1q17 -6 23 -21q4 -8 4 -16t-3 -16z" />
    <glyph glyph-name="X" unicode="X" 
d="M678 61q8 -11 8 -24v-7q-2 -16 -16 -26q-6 -4 -12 -6q-7 -3 -13 -3q-9 0 -18 5q-9 4 -15 12l-243 324l-244 -324q-6 -8 -15 -12q-9 -5 -18 -5q-6 0 -13 3q-6 2 -11 6q-14 10 -16 26q-1 4 -1 7q0 13 8 24l258 344l-258 344q-10 14 -7 31q2 16 16 26q11 9 24 9q3 0 6 -1
q17 -2 27 -16l244 -324l243 324q10 14 27 16t31 -8t16 -26q2 -17 -8 -31l-258 -344z" />
    <glyph glyph-name="Y" unicode="Y" 
d="M678 749l-268 -357v-356q0 -16 -12 -29q-12 -12 -29 -12t-29 12q-12 13 -12 29v356l-269 357q-8 11 -8 25q0 3 1 6q2 16 16 26q11 9 24 9q3 0 6 -1q17 -2 27 -16l151 -201l152 201q10 14 27 16t30 -8q14 -10 16 -26q3 -17 -7 -31l-166 -221q13 -18 41 -54l243 324
q10 14 27 16t31 -8t16 -26v-6q0 -14 -8 -25z" />
    <glyph glyph-name="Z" unicode="Z" horiz-adv-x="778" 
d="M686 42q0 -17 -12 -29t-29 -12h-553q-11 0 -21 6t-16 17q-4 9 -4 18v4q1 12 8 21l504 672h-471q-17 0 -29 12t-12 29t12 29t29 12h553q12 0 22 -6t15 -17q4 -9 4 -18v-4q-1 -12 -8 -21l-504 -672h471q17 0 29 -12t12 -29zM686 179q0 -17 -12 -29t-29 -12h-290
q-17 0 -29 12t-12 29q0 16 12 28q12 13 29 13h290q17 0 29 -13q12 -12 12 -28z" />
    <glyph glyph-name="a" unicode="a" horiz-adv-x="787" 
d="M645 0h-553q-10 0 -19 5q-8 4 -15 13q-6 8 -7 18v4q0 8 3 16l279 732q4 12 15 19q10 7 23 7t23 -7q11 -7 15 -19l274 -732q3 -7 3 -15q0 -2 -1 -5q-1 -10 -7 -18q-5 -9 -14 -13q-9 -5 -19 -5zM152 82h434l-215 576z" />
    <glyph glyph-name="b" unicode="b" 
d="M686 226q0 -87 -39 -135t-88 -70q-26 -11 -52 -16q-26 -4 -46 -4h-369q-17 0 -29 12t-12 29v368q0 17 12 29t29 12h369l24 3t52 17q33 17 50 48t17 76q0 44 -17 75t-50 48q-28 14 -52 17l-24 3h-277q-17 0 -29 12t-12 29t12 29t29 12h277q20 0 46 -5t52 -16
q49 -21 88 -69q39 -49 39 -135q0 -70 -27 -115q-26 -44 -63 -70q37 -25 63 -70q27 -44 27 -114zM604 226q0 36 -10 61q-11 25 -27 41q-29 30 -64 35q-35 6 -42 6h-328v-286h328q7 0 42 6t64 35q16 16 27 41q10 25 10 61z" />
    <glyph glyph-name="c" unicode="c" 
d="M461 1q-60 0 -114 16q-55 16 -102 45q-87 54 -141 146q-53 92 -53 202q0 60 16 114q16 55 46 102q54 87 146 141q92 53 202 53q54 0 106 -14q52 -15 99 -42q14 -8 19 -25q4 -16 -4 -31q-8 -14 -25 -19t-31 4q-37 22 -79 33q-42 12 -85 12q-47 0 -91 -13t-81 -36
q-70 -44 -113 -117q-43 -74 -43 -162t43 -161q43 -74 113 -117q37 -24 81 -37q44 -12 91 -12q43 0 85 11t79 33q14 8 31 4t25 -20q6 -9 6 -20q0 -5 -2 -11q-4 -17 -19 -25q-47 -26 -99 -40t-106 -14z" />
    <glyph glyph-name="d" unicode="d" 
d="M276 1h-184q-17 0 -29 12t-12 29v737q0 17 12 29t29 12h184q37 0 105 -7q68 -6 135 -44q85 -49 127 -139q43 -90 43 -220t-43 -220q-42 -90 -127 -138q-67 -39 -135 -45t-105 -6zM133 83h143q40 0 82 4q41 5 78 18q71 26 119 95q49 68 49 210q0 76 -15 131q-15 54 -41 91
q-48 68 -122 87q-75 19 -150 19h-143v-655z" />
    <glyph glyph-name="e" unicode="e" 
d="M686 42q0 -17 -12 -29t-29 -12h-553q-17 0 -29 12t-12 29v737q0 17 12 29t29 12h553q17 0 29 -12t12 -29t-12 -29t-29 -12h-512v-378q109 1 327 4q17 1 29 -11q13 -12 13 -29q1 -17 -11 -30q-12 -12 -29 -12q-110 -1 -329 -4v-195h512q17 0 29 -13q12 -12 12 -28z" />
    <glyph glyph-name="f" unicode="f" 
d="M686 779q0 -17 -12 -29t-29 -12h-512v-287h328q17 0 29 -12t12 -29t-12 -29t-29 -12h-328v-327q0 -17 -12 -29t-29 -12t-29 12t-12 29v737q0 17 12 29t29 12h553q17 0 29 -12t12 -29z" />
    <glyph glyph-name="g" unicode="g" 
d="M461 1q-60 0 -114 16q-55 16 -102 45q-87 54 -141 146q-53 92 -53 202q0 60 16 114q16 55 46 102q54 87 146 141q92 53 202 53q54 0 106 -14q52 -15 99 -42q14 -8 19 -25q1 -6 1 -11q0 -11 -5 -20q-8 -14 -25 -19t-31 4q-37 22 -79 33q-42 12 -85 12q-47 0 -91 -13
t-81 -36q-70 -44 -113 -117q-43 -74 -43 -162t43 -161q43 -74 113 -117q37 -24 81 -37q44 -12 91 -12q37 0 74 8q36 8 69 24v203q0 17 12 29t29 12t29 -12t12 -29v-227q0 -11 -6 -21q-5 -9 -14 -15q-47 -26 -99 -40t-106 -14z" />
    <glyph glyph-name="h" unicode="h" 
d="M686 779v-737q0 -17 -12 -29t-29 -12t-29 12t-12 29v235h-471v-235q0 -17 -12 -29t-29 -12t-29 12t-12 29v737q0 17 12 29t29 12t29 -12t12 -29v-236h471v236q0 17 12 29t29 12t29 -12t12 -29zM604 359v102h-471v-102h471z" />
    <glyph glyph-name="i" unicode="i" horiz-adv-x="235" 
d="M92 1q-17 0 -29 12t-12 29v737q0 17 12 29t29 12t29 -12t12 -29v-737q0 -17 -12 -29t-29 -12z" />
    <glyph glyph-name="j" unicode="j" horiz-adv-x="419" 
d="M92 1q-17 0 -29 12t-12 29q0 16 12 28q12 13 29 13q38 0 63 4q25 5 41 14q30 17 35 48q5 32 5 77v553q0 17 12 29t28 12q17 0 29 -12t12 -29v-553q0 -44 -7 -96q-8 -52 -54 -87q-25 -19 -65 -31q-40 -11 -99 -11z" />
    <glyph glyph-name="k" unicode="k" horiz-adv-x="605" 
d="M494 71q8 -11 8 -24q0 -3 -1 -6q-2 -17 -16 -27q-5 -4 -12 -6q-6 -2 -12 -2q-9 0 -18 4t-15 12l-197 262l-98 -73v-169q0 -17 -12 -29t-29 -12t-29 12t-12 29v737q0 17 12 29t29 12t29 -12t12 -29v-283l257 190q14 10 31 7t26 -17q10 -13 8 -30q-3 -17 -17 -27l-305 -224
v-82l303 227q14 10 31 8t27 -16t7 -31q-2 -16 -16 -26l-188 -142z" />
    <glyph glyph-name="l" unicode="l" horiz-adv-x="697" 
d="M553 1h-461q-17 0 -29 12t-12 29v737q0 17 12 29t29 12t29 -12t12 -29v-696h420q17 0 29 -13q12 -12 12 -28q0 -17 -12 -29t-29 -12z" />
    <glyph glyph-name="m" unicode="m" horiz-adv-x="972" 
d="M843 4q-3 -2 -7 -3h-7q-12 0 -23 7q-10 7 -15 19l-238 635l-239 -635q-5 -15 -21 -22q-15 -7 -31 -1q-16 5 -23 20q-7 16 -1 32l178 477l-48 129l-238 -635q-5 -12 -15 -19q-11 -7 -23 -7h-7q-4 1 -8 3q-15 5 -22 20q-4 9 -4 17t3 15l276 737q4 12 15 20q10 7 23 7t24 -7
q10 -8 14 -20l54 -143l55 143q4 12 14 20q10 7 24 7q13 0 23 -7q11 -8 14 -20l277 -737q3 -8 3 -16t-4 -16q-7 -15 -23 -20z" />
    <glyph glyph-name="n" unicode="n" 
d="M686 779v-737q0 -14 -8 -25q-7 -11 -20 -14q-3 -1 -7 -2h-6q-9 0 -18 4t-15 12l-479 639v-440h236q17 0 29 -12t12 -29t-12 -29t-29 -12h-277q-17 0 -29 12t-12 29v604q0 13 8 24t20 15q13 4 26 0q12 -4 20 -15l479 -639v615q0 17 12 29t29 12t29 -12t12 -29zM500 42
q0 -17 -12 -29t-29 -12h-367q-17 0 -29 12t-12 29q0 16 12 28q12 13 29 13h367q17 0 29 -13q12 -12 12 -28z" />
    <glyph glyph-name="o" unicode="o" horiz-adv-x="973" 
d="M461 1q-60 0 -114 16q-55 16 -102 45q-87 54 -141 146q-53 92 -53 202q0 60 16 114q16 55 46 102q54 87 146 141q92 53 202 53t202 -53q92 -54 146 -141q29 -47 45 -102q16 -54 16 -114q0 -59 -16 -114t-45 -102q-54 -87 -146 -140t-202 -53zM461 738q-47 0 -91 -13
t-81 -36q-70 -44 -113 -117q-43 -74 -43 -162t43 -161q43 -74 113 -117q37 -24 81 -37q44 -12 91 -12q88 0 161 42q74 43 117 113q24 38 37 81q12 44 12 91t-12 91q-13 44 -37 81q-43 70 -117 113q-73 43 -161 43z" />
    <glyph glyph-name="p" unicode="p" 
d="M92 1q-17 0 -29 12t-12 29v368q0 17 12 29t29 12h369q7 0 42 6t64 36q16 16 27 40q10 25 10 62q0 36 -10 61q-11 25 -26 41q-30 31 -65 38t-43 8h-276q-17 0 -29 12t-12 29t12 29t29 12h278q20 -1 46 -6q26 -6 52 -18q48 -22 87 -71t39 -135q0 -87 -39 -135
q-39 -49 -88 -70q-26 -11 -52 -16t-46 -5h-328v-327q0 -17 -12 -29t-29 -12z" />
    <glyph glyph-name="q" unicode="q" horiz-adv-x="973" 
d="M858 17q-6 -6 -13 -9q-8 -3 -16 -3q-7 0 -15 3q-7 3 -13 9l-81 81q-53 -43 -119 -68q-66 -24 -140 -24q-60 0 -114 16q-55 16 -102 45q-87 54 -141 146q-53 92 -53 202q0 60 16 115q16 54 46 101q54 87 146 141q92 53 202 53t202 -53q92 -54 146 -141q29 -47 45 -101
q16 -55 16 -115q0 -73 -24 -140q-25 -66 -68 -119l80 -81q12 -11 12 -28q0 -18 -12 -30zM662 156l-46 45q-12 13 -12 29q0 17 12 30q13 12 30 12t29 -12l45 -45q32 41 50 92t18 108q0 88 -42 162q-43 73 -113 117q-38 23 -81 36q-44 13 -91 13t-91 -13t-81 -36
q-70 -44 -113 -117q-43 -74 -43 -162t43 -161q43 -74 113 -117q37 -24 81 -36q44 -13 91 -13q57 0 108 18t93 50z" />
    <glyph glyph-name="r" unicode="r" 
d="M682 59q4 -9 4 -18q1 -6 -2 -13q-5 -16 -20 -24q-5 -2 -10 -3q-4 -1 -9 -1q-11 0 -21 6t-16 16l-173 346h-302v-327q0 -17 -12 -29t-29 -12t-29 12t-12 29v368q0 17 12 29t29 12h369q7 0 42 6t64 36q16 16 27 41q10 24 10 61q0 36 -10 61q-11 25 -27 41q-29 29 -64 35
t-42 6h-277q-17 0 -29 12t-12 29t12 29t29 12h277q20 0 46 -5t52 -16q49 -21 88 -69t39 -135q0 -103 -53 -153q-53 -49 -110 -64z" />
    <glyph glyph-name="s" unicode="s" horiz-adv-x="421" 
d="M92 -5q-11 0 -21 6t-15 17q-5 9 -5 18q0 7 2 13q6 17 21 24q17 9 37 21q19 11 38 25q35 25 61 52q26 28 26 50q0 25 -28 72l-57 90q-39 57 -69 110t-30 96q0 40 27 79q27 40 81 81q36 28 66 44q31 17 32 18q9 4 18 4q7 0 14 -2q16 -6 24 -21q4 -9 4 -18q0 -7 -2 -13
q-5 -16 -21 -24q-32 -16 -69 -42q-37 -25 -63 -52q-13 -14 -21 -28q-9 -14 -9 -26q0 -25 29 -72l56 -89q39 -58 69 -111q31 -52 31 -96q0 -39 -28 -79q-27 -40 -81 -81q-36 -28 -66 -44q-31 -17 -32 -17q-5 -3 -9 -4q-5 -1 -10 -1z" />
    <glyph glyph-name="t" unicode="t" horiz-adv-x="512" 
d="M92 -5q-17 0 -29 12q-12 13 -12 29v743q0 17 12 29t29 12h277q17 0 29 -12t12 -29t-12 -29t-29 -12h-236v-702q0 -16 -12 -29q-12 -12 -29 -12z" />
    <glyph glyph-name="u" unicode="u" 
d="M369 6q-156 0 -237 80q-81 81 -81 237v461q0 17 12 29t29 12t29 -12t12 -29v-461q0 -120 58 -178q57 -57 178 -57q120 0 178 57q57 58 57 178v461q0 17 12 29t29 12t29 -12t12 -29v-461q0 -156 -81 -237q-80 -80 -236 -80z" />
    <glyph glyph-name="v" unicode="v" horiz-adv-x="787" 
d="M368 -5q-13 0 -23 8q-11 7 -15 19l-276 737q-3 8 -3 16t4 16q6 15 23 21q7 3 15 3q8 -1 16 -4q15 -7 21 -23l238 -635l239 635q5 16 21 23q15 7 31 1q16 -7 23 -22q4 -8 4 -16q0 -7 -3 -15l-277 -737q-4 -12 -14 -19q-11 -8 -24 -8z" />
    <glyph glyph-name="w" unicode="w" horiz-adv-x="973" 
d="M867 759l-276 -737q-4 -12 -15 -19q-11 -8 -23 -8q-13 0 -23 8q-11 7 -15 19l-55 143l-54 -143q-4 -12 -15 -19q-10 -8 -23 -8q-12 0 -22 8q-11 7 -16 19l-276 737q-3 8 -3 15q0 8 4 16q6 15 23 22q7 3 15 3q8 -1 16 -4q15 -7 21 -23l238 -635l49 129l-179 477
q-6 16 1 31t23 22q16 6 31 -1q16 -7 21 -23l239 -635l238 635q6 16 21 23t31 1q17 -6 23 -21q4 -8 4 -16t-3 -16z" />
    <glyph glyph-name="x" unicode="x" 
d="M678 61q8 -11 8 -24v-7q-2 -16 -16 -26q-6 -4 -12 -6q-7 -3 -13 -3q-9 0 -18 5q-9 4 -15 12l-243 324l-244 -324q-6 -8 -15 -12q-9 -5 -18 -5q-6 0 -13 3q-6 2 -11 6q-14 10 -16 26q-1 4 -1 7q0 13 8 24l258 344l-258 344q-10 14 -7 31q2 16 16 26q11 9 24 9q3 0 6 -1
q17 -2 27 -16l244 -324l243 324q10 14 27 16t31 -8t16 -26q2 -17 -8 -31l-258 -344z" />
    <glyph glyph-name="y" unicode="y" 
d="M678 749l-268 -357v-356q0 -16 -12 -29q-12 -12 -29 -12t-29 12q-12 13 -12 29v356l-269 357q-8 11 -8 25q0 3 1 6q2 16 16 26q11 9 24 9q3 0 6 -1q17 -2 27 -16l151 -201l152 201q10 14 27 16t30 -8q14 -10 16 -26q3 -17 -7 -31l-166 -221q13 -18 41 -54l243 324
q10 14 27 16t31 -8t16 -26v-6q0 -14 -8 -25z" />
    <glyph glyph-name="z" unicode="z" horiz-adv-x="778" 
d="M686 41q0 -17 -12 -29t-29 -12h-553q-11 0 -21 6t-16 16q-4 9 -4 19v4q1 11 8 20l504 672h-471q-17 0 -29 12t-12 29t12 29t29 12h553q12 0 22 -6t15 -16q4 -9 4 -19v-4q-1 -11 -8 -20l-504 -672h471q17 0 29 -12t12 -29zM686 177q0 -17 -12 -29t-29 -12h-290
q-17 0 -29 12t-12 29t12 29t29 12h290q17 0 29 -12t12 -29z" />
    <glyph glyph-name="quoteright" unicode="&#x2019;" horiz-adv-x="402" 
d="M192 658q-19 0 -33 13q-13 14 -13 33v92q0 19 13 33q14 13 33 13t32 -13q14 -14 14 -33v-92q0 -18 -14 -32q-13 -14 -32 -14z" />
    <glyph glyph-name="quotedblleft" unicode="&#x201c;" horiz-adv-x="402" 
d="M133 658q-19 0 -33 13q-13 14 -13 33v92q0 19 13 33q14 13 33 13t33 -13q13 -14 13 -33v-92q0 -18 -13 -32q-14 -14 -33 -14zM285 658q-19 0 -33 13q-13 14 -13 33v92q0 19 13 33q14 13 33 13t33 -13q13 -14 13 -33v-92q0 -18 -13 -32q-14 -14 -33 -14z" />
    <glyph glyph-name="quotedblright" unicode="&#x201d;" horiz-adv-x="402" 
d="M133 658q-19 0 -33 13q-13 14 -13 33v92q0 19 13 33q14 13 33 13t33 -13q13 -14 13 -33v-92q0 -18 -13 -32q-14 -14 -33 -14zM285 658q-19 0 -33 13q-13 14 -13 33v92q0 19 13 33q14 13 33 13t33 -13q13 -14 13 -33v-92q0 -18 -13 -32q-14 -14 -33 -14z" />
    </font>
</defs>
</svg>
